<svg width="512" height="512" viewBox="0 0 512 512" fill="none" xmlns="http://www.w3.org/2000/svg">
  <defs>
    <!-- Dégradé pour le S stylisé -->
    <linearGradient id="gradientS" x1="0%" y1="0%" x2="100%" y2="100%">
      <stop offset="0%" stop-color="#7C3AED" />
      <stop offset="100%" stop-color="#3B82F6" />
    </linearGradient>
    
    <!-- Dégradé pour les vagues de streaming -->
    <linearGradient id="gradientWave" x1="0%" y1="0%" x2="100%" y2="0%">
      <stop offset="0%" stop-color="#3B82F6" />
      <stop offset="100%" stop-color="#7C3AED" />
    </linearGradient>
    
    <!-- Animation de l'écoulement pour les vagues -->
    <animate id="flowAnimation" 
      attributeName="offset" 
      values="0;1;0"
      dur="3s" 
      begin="0s" 
      repeatCount="indefinite"/>
  </defs>
  
  <!-- Cercle de fond -->
  <circle cx="256" cy="256" r="256" fill="#0F172A" opacity="0.8"/>
  
  <!-- Lettre S stylisée en forme de vague -->
  <path d="
    M 300 160
    C 260 160, 200 160, 180 200
    C 160 240, 180 270, 220 280
    L 280 300
    C 320 310, 340 340, 320 380
    C 300 420, 240 420, 200 420
    M 200 420
    C 240 420, 300 420, 320 380
    C 340 340, 320 310, 280 300
    L 220 280
    C 180 270, 160 240, 180 200
    C 200 160, 260 160, 300 160
    " 
    stroke="url(#gradientS)" stroke-width="30" stroke-linecap="round" fill="none">
  </path>
  
  <!-- Vagues fluides (streaming) -->
  <path d="
    M 120 340
    Q 170 310, 220 340
    Q 270 370, 320 340
    Q 370 310, 420 340
    " 
    stroke="url(#gradientWave)" stroke-width="12" fill="none" opacity="0.6" stroke-linecap="round">
    <animate attributeName="d" 
      values="
        M 120 340 Q 170 310, 220 340 Q 270 370, 320 340 Q 370 310, 420 340;
        M 120 340 Q 170 370, 220 340 Q 270 310, 320 340 Q 370 370, 420 340;
        M 120 340 Q 170 310, 220 340 Q 270 370, 320 340 Q 370 310, 420 340
      "
      dur="4s" repeatCount="indefinite"/>
  </path>
  
  <path d="
    M 100 370
    Q 150 340, 200 370
    Q 250 400, 300 370
    Q 350 340, 400 370
    " 
    stroke="url(#gradientWave)" stroke-width="8" fill="none" opacity="0.4" stroke-linecap="round">
    <animate attributeName="d" 
      values="
        M 100 370 Q 150 340, 200 370 Q 250 400, 300 370 Q 350 340, 400 370;
        M 100 370 Q 150 400, 200 370 Q 250 340, 300 370 Q 350 400, 400 370;
        M 100 370 Q 150 340, 200 370 Q 250 400, 300 370 Q 350 340, 400 370
      "
      dur="3s" repeatCount="indefinite"/>
  </path>
</svg>